<svg version="1" xmlns="http://www.w3.org/2000/svg" width="200" height="200" viewBox="0 0 150.000000 150.000000"><path d="M2 61.1v21.1l66-.3 66-.4V40H2v21.1zm17.2-14.3c-.8.2-1.2 3.5-1.2 9.8 0 9.1-.1 9.4-2.2 9.4-2.2 0-2.3-.2-2-8.6.2-4.7-.1-9.1-.6-9.7-.8-.9 0-1.2 3.1-1.3 2.2 0 3.5.2 2.9.4zM96 48.5c0 2.7-1.5 3.4-2.4 1-.3-.8-1.5-1.5-2.6-1.5-1.9 0-2 .6-2 8.5 0 6.9.3 8.5 1.5 8.5.8 0 1.5.4 1.5 1 0 .5-2.2 1-5 1-2.7 0-5-.5-5-1 0-.6.7-1 1.5-1 1.2 0 1.5-1.6 1.5-8.5 0-8.4 0-8.5-2.5-8.5-1.6 0-2.5.6-2.5 1.5 0 .8-.4 1.5-1 1.5-.5 0-1-1.1-1-2.5 0-2.5.1-2.5 9-2.5s9 0 9 2.5zM27.8 59.2c.3 6.3.1 6.8-1.8 6.8-1.8 0-2-.6-2-6.4 0-4.2-.4-6.6-1.2-7-.7-.3.1-.4 1.7-.3 3 .2 3 .2 3.3 6.9zm8-6c.7.7 1.2 3.8 1.2 7 0 5.1-.2 5.8-2 5.8-1.6 0-1.9-.8-2.2-6.3-.3-5.2-.6-6.2-2-6.1-1 .1-1.5-.2-1.2-.7.8-1.3 4.8-1.1 6.2.3zm11 6c.3 6.3.1 6.8-1.8 6.8-1.8 0-2-.6-2-6.4 0-4.2-.4-6.6-1.2-7-.7-.3.1-.4 1.7-.3 3 .2 3 .2 3.3 6.9zm8-6c.5.7 1.2 3.9 1.4 7.1.3 5.2.1 5.7-1.7 5.7s-2-.5-1.7-5c.4-5.4-1.1-8.5-3.5-7.6-.8.3-1.1.1-.8-.4.9-1.4 5.1-1.2 6.3.2zM74 54c2.8 2.8 2.6 7.5-.5 10.5-1.3 1.4-3.2 2.5-4.2 2.5-1.7-.1-1.7-.1 0-1.4 1.4-1.1 1.7-2.5 1.5-6.8-.3-4.6-.6-5.3-2.5-5.6-3.9-.6-5.3 7.4-2 11.5 1.4 1.9-1.8 1.7-3.7-.3-1.6-1.6-2.1-7.1-.8-9C64.2 51.8 71 51 74 54zm32.7.9c1.6 3.3.9 4.1-3.8 4.1-3.8 0-4 .2-3.7 2.7.3 2.6.6 2.8 4.2 2.7 3.6-.2 3.8 0 2.1 1.2-2.8 2.1-6.3 1.7-9-1.1-5.1-5-1.7-12.9 5.3-12.3 2.7.2 4 .9 4.9 2.7zm15.3-.4c0 3-1.6 3.3-2.3.4-.8-3.1-4-2-4.7 1.6-.3 1.7-.3 4.1 0 5.5.5 2.2 1.2 2.5 4.5 2.4 3.5-.2 3.7 0 2 1.2-3.1 2.3-7.1 1.7-9.4-1.2-4.5-5.8-1.4-12.4 5.9-12.4 3.6 0 4 .2 4 2.5zM78.3 73c-.3 1.1-.9 2-1.4 2-.5 0-.9-.9-.9-2s.6-2 1.4-2c.9 0 1.2.7.9 2zm21.3 0c0 1.1-.6 2-1.3 2-.7 0-1.3-.9-1.3-2s.6-2 1.3-2c.7 0 1.3.9 1.3 2zm22.4 0c0 .9-.8 1.6-2 1.6s-2-.7-2-1.6c0-.9.8-1.6 2-1.6s2 .7 2 1.6z"/><path d="M99.7 53.6c-1.6 1.6-.7 4.4 1.4 4.4 1.5 0 2-.5 1.7-2.2-.3-2.2-1.9-3.3-3.1-2.2zM137 90.6c-2.5 1.4-2.5 1.4 1.2 1.2 2-.1 3.5-.5 3.3-.8-.2-.3.7-.6 2-.6 1.5 0 2.1.4 1.8 1.4-.5 1.1-.7 1.1-1.5 0-.8-1-.9-1-.5.2.2.8 0 2.3-.5 3.3s-.7 2.1-.5 2.4c.7.6 3.3-3.5 4.2-6.5.6-2 .3-2.2-3.2-2.1-2.1.1-4.9.7-6.3 1.5zM81 98.5v6.5h4.1c2.4 0 3.8-.4 3.4-1-.3-.6-1.7-1-3.1-1-1.5 0-2.4-.6-2.4-1.5s.9-1.5 2.5-1.5c1.4 0 2.5-.5 2.5-1 0-.6-1.1-1-2.5-1-1.8 0-2.5-.5-2.5-2 0-1.6.7-2 3-2 1.7 0 3-.5 3-1 0-.6-1.8-1-4-1h-4v6.5zM100.8 93.2c-.2.7-.2 3.6 0 6.5.4 5.2 1.7 6.9 4.3 5.2 1.1-.7 1.1-.9-.3-.9-1.4 0-1.8-.8-1.8-3.6 0-2.3.6-4.2 1.8-5 1.6-1.3 1.6-1.3 0-1.4-1 0-1.8-.5-1.8-1 0-1.4-1.7-1.2-2.2.2zM116 98.5c0 3.7.4 6.5 1 6.5s1-2.8 1-6.5-.4-6.5-1-6.5-1 2.8-1 6.5zM91 100.2c0 2.6.4 4.8 1 4.8.5 0 .7-.7.4-1.5-1-2.6.5-6.7 2.4-6.3 1.3.3 1.6 1.2 1.4 4.1-.2 2.3.1 3.7.8 3.7.7 0 1-1.7.8-4.8-.3-4.6-.4-4.7-3.5-4.7-3.3-.1-3.3 0-3.3 4.7zM107.7 95.7c-.4.3-.7 2.3-.7 4.4 0 4.1 1.9 6 5.1 5.2 2.8-.8 2.3-2.1-.6-1.5-1.8.3-2.5 0-2.5-1.2 0-1 .9-1.6 2.5-1.6 2 0 2.5-.5 2.5-2.4 0-2.9-4.3-4.9-6.3-2.9zm4.8 2.3c.3.5-.3 1-1.4 1-1.2 0-2.1-.5-2.1-1 0-.6.6-1 1.4-1 .8 0 1.8.4 2.1 1zM120.6 96.6c-1.7 4.5.9 10.2 4.1 9 1-.4 1.3 0 1.1 1.2-.3 1.1-1.2 1.6-2.6 1.5-1.2-.2-2.2.2-2.2.8 0 .6 1.4.9 3.3.7l3.2-.3.3-7 .3-7.1-3.4-.2c-2.4-.2-3.7.2-4.1 1.4zm5.4 4c0 2.8-.3 3.5-1.7 3.2-1.2-.2-1.9-1.4-2.1-3.6-.3-2.7 0-3.2 1.7-3.2s2.1.6 2.1 3.6zM130 95.6c0 .6.7 3.1 1.5 5.5.9 2.4 1.3 5.4 1 6.6-.3 1.3-.1 2.3.4 2.3 1.1 0 5.6-13.9 4.7-14.7-.5-.6-2.6 4-2.6 5.8 0 .5-.4.9-1 .9-.5 0-1-.8-1-1.8 0-2-2.9-6.4-3-4.6z"/></svg>